<svg width="36" height="36" viewBox="0 0 36 36" fill="none" xmlns="http://www.w3.org/2000/svg">
<g filter="url(#filter0_d_20_722)">
<g clip-path="url(#clip0_20_722)">
<rect x="3" y="1" width="30" height="30" rx="4" fill="#56566B" fill-opacity="0.1"/>
<path d="M25.308 11.0233L24.9106 9.832C24.7592 9.37827 24.3361 9.07339 23.8579 9.07339H20.5177V7.98589C20.5177 7.44234 20.0758 7 19.5324 7H16.4735C15.9302 7 15.4881 7.44234 15.4881 7.98589V9.07339H12.148C11.6697 9.07339 11.2466 9.37827 11.0953 9.832L10.6978 11.0233C10.6073 11.2946 10.6532 11.5949 10.8203 11.8268C10.9875 12.0588 11.2579 12.1974 11.5438 12.1974H11.9592L12.8735 23.5038C12.9415 24.3427 13.6534 25 14.4946 25H21.6968C22.5378 25 23.2499 24.3427 23.3177 23.5037L24.232 12.1974H24.4621C24.748 12.1974 25.0184 12.0588 25.1855 11.827C25.3526 11.595 25.3985 11.2946 25.308 11.0233ZM16.5428 8.05469H19.463V9.07339H16.5428V8.05469ZM22.2664 23.4187C22.2425 23.7141 21.9923 23.9453 21.6968 23.9453H14.4946C14.199 23.9453 13.9488 23.7141 13.9249 23.4187L13.0173 12.1974H23.1739L22.2664 23.4187ZM11.77 11.1427L12.0958 10.1657C12.1033 10.1432 12.1243 10.1281 12.148 10.1281H23.8579C23.8817 10.1281 23.9026 10.1432 23.9101 10.1657L24.236 11.1427H11.77Z" fill="#C7CCDC" fill-opacity="0.5"/>
<path d="M20.5845 23.3811C20.5938 23.3816 20.6031 23.3818 20.6124 23.3818C20.891 23.3818 21.1239 23.1634 21.1385 22.8819L21.6337 13.3757C21.6488 13.0848 21.4252 12.8367 21.1345 12.8216C20.843 12.806 20.5956 13.0299 20.5804 13.3208L20.0853 22.827C20.0702 23.1178 20.2936 23.366 20.5845 23.3811Z" fill="#C7CCDC" fill-opacity="0.5"/>
<path d="M14.891 22.8835C14.9064 23.1646 15.1391 23.3821 15.4172 23.3821C15.4268 23.3821 15.4367 23.3819 15.4464 23.3813C15.7371 23.3655 15.96 23.117 15.9442 22.8261L15.4255 13.3199C15.4097 13.029 15.1612 12.8062 14.8703 12.8221C14.5796 12.8379 14.3567 13.0865 14.3725 13.3773L14.891 22.8835Z" fill="#C7CCDC" fill-opacity="0.5"/>
<path d="M18.0089 23.3822C18.3002 23.3822 18.5363 23.1461 18.5363 22.8548V13.3486C18.5363 13.0574 18.3002 12.8213 18.0089 12.8213C17.7176 12.8213 17.4816 13.0574 17.4816 13.3486V22.8548C17.4816 23.1461 17.7176 23.3822 18.0089 23.3822Z" fill="#C7CCDC" fill-opacity="0.5"/>
</g>
</g>
<defs>
<filter id="filter0_d_20_722" x="0" y="0" width="36" height="36" filterUnits="userSpaceOnUse" color-interpolation-filters="sRGB">
<feFlood flood-opacity="0" result="BackgroundImageFix"/>
<feColorMatrix in="SourceAlpha" type="matrix" values="0 0 0 0 0 0 0 0 0 0 0 0 0 0 0 0 0 0 127 0" result="hardAlpha"/>
<feOffset dy="2"/>
<feGaussianBlur stdDeviation="1.5"/>
<feComposite in2="hardAlpha" operator="out"/>
<feColorMatrix type="matrix" values="0 0 0 0 0 0 0 0 0 0 0 0 0 0 0 0 0 0 0.15 0"/>
<feBlend mode="normal" in2="BackgroundImageFix" result="effect1_dropShadow_20_722"/>
<feBlend mode="normal" in="SourceGraphic" in2="effect1_dropShadow_20_722" result="shape"/>
</filter>
<clipPath id="clip0_20_722">
<rect x="3" y="1" width="30" height="30" rx="4" fill="white"/>
</clipPath>
</defs>
</svg>
